<svg xmlns="http://www.w3.org/2000/svg" viewBox="0 0 100 115">
  <path d="m25.262 86.875c-2.8086 2.8242-5.9414 5.7383-9.4922 8.7617-1.7344 1.4766-4.3398 1.2656-5.8164-0.46875s-1.2656-4.3398 0.46875-5.8164c2.9766-2.5312 5.6406-4.9844 8.0586-7.3711-0.78125-0.95703-1.8203-2.4883-2.8359-4.5391-3.0312-6.1172-6.4727-17.359-2.8555-29.312 2.3867-7.8828 7.8086-16.148 18.66-23.367 23.828-15.855 49.109-21.055 49.109-21.055 2.0469-0.42188 4.0859 0.75 4.75 2.7344 0 0 6.2383 18.727 5.125 37.984-0.78516 13.547-5.2344 27.246-17.172 35.605-20.977 14.684-37.352 12.582-48 6.8438zm5.9219-6.3398c8.6797 3.7148 21.363 3.9297 37.344-7.2617 9.7734-6.8438 13.027-18.238 13.668-29.324 0.73828-12.77-2.0469-25.289-3.6523-31.262-7.5312 2-25.422 7.5625-42.523 18.945-19.156 12.746-17.855 29.207-14.484 38.594 0.8125 2.2695 2.043 4.4727 2.7461 5.6523 5.5508-6.2266 9.6055-11.992 13.367-17.48l0.035156-17.613c0.003906-2.2773 1.8555-4.1211 4.1328-4.1172 2.2773 0.003906 4.1211 1.8555 4.1172 4.1328l-0.011719 5.8789c4.9766-6.5508 10.777-12.883 19.512-19.344 1.8281-1.3555 4.4141-0.96875 5.7695 0.85937 1.3555 1.832 0.96875 4.418-0.86328 5.7695-8.793 6.5117-14.359 12.902-19.23 19.551 6.5586-2.0938 12.883-3.4844 18.684-2.5273 2.25 0.375 3.7695 2.5 3.3984 4.7461s-2.4961 3.7656-4.7422 3.3945c-7.7227-1.2773-16.402 2.6953-25.344 5.8945-3.4062 4.9141-7.1289 10.043-11.922 15.512z" fill="currentColor" fill-rule="evenodd"></path>
</svg>