<svg width="1439" height="657" viewBox="0 0 1439 657" fill="none" xmlns="http://www.w3.org/2000/svg">
<path d="M213.077 462.557C267.84 474.989 298.706 503.335 298.706 550.081C298.706 614.73 253.9 647.054 159.31 647.054H0V622.189C15.931 622.189 34.849 617.216 34.849 597.324V348.676C34.849 328.784 15.931 323.811 0 323.811V298.946H159.31C238.965 298.946 283.771 321.324 283.771 385.973C283.771 426.751 258.381 451.119 213.077 462.557ZM159.31 323.811C127.448 323.811 114.504 328.784 114.504 348.676V450.622H139.396C179.224 450.622 199.137 425.757 199.137 385.973C199.137 341.216 189.18 323.811 159.31 323.811ZM159.31 622.189C199.137 622.189 214.073 594.838 214.073 550.081C214.073 505.324 194.159 475.486 139.396 475.486H114.504V597.324C114.504 617.216 127.448 622.189 159.31 622.189Z" fill="#1E2B7C"></path>
<path d="M655.053 617.216H684.923C684.923 642.081 665.009 657 630.16 657C585.355 657 551.003 638.6 532.085 572.459C516.652 517.757 495.743 497.865 450.937 497.865V597.324C450.937 617.216 460.894 622.189 505.7 622.189V647.054H336.433V622.189C356.347 622.189 371.282 617.216 371.282 597.324V348.676C371.282 328.784 352.364 323.811 336.433 323.811V298.946H495.743C585.355 298.946 635.139 328.784 635.139 398.405C635.139 445.151 608.255 473.497 557.973 487.422C590.333 501.843 603.775 528.2 616.719 572.459C629.663 616.222 636.135 627.162 646.091 627.162C652.563 627.162 655.053 622.189 655.053 617.216ZM450.937 348.676V473H465.872C510.678 473 550.506 453.108 550.506 398.405C550.506 343.703 530.592 323.811 495.743 323.811C463.881 323.811 450.937 328.784 450.937 348.676Z" fill="#1E2B7C"></path>
<path d="M856.601 657C747.076 657 687.335 582.405 687.335 473C687.335 363.595 747.076 289 856.601 289C966.127 289 1025.87 363.595 1025.87 473C1025.87 582.405 966.127 657 856.601 657ZM856.601 627.162C906.386 627.162 941.235 572.459 941.235 473C941.235 373.541 906.386 318.838 856.601 318.838C806.817 318.838 771.968 373.541 771.968 473C771.968 572.459 806.817 627.162 856.601 627.162Z" fill="#1E2B7C"></path>
<path d="M1208.02 437.692C1313.07 479.465 1327 517.757 1327 562.514C1327 627.162 1262.29 657 1187.61 657C1152.76 657 1123.39 649.043 1101.48 633.627C1090.03 625.67 1083.06 637.108 1083.06 652.027H1058.17V532.676H1083.06C1098.99 590.362 1127.87 627.162 1187.61 627.162C1222.46 627.162 1259.8 617.216 1259.8 582.405C1259.8 557.541 1235.9 534.665 1175.16 510.297C1099.49 479.962 1063.15 448.135 1063.15 388.459C1063.15 328.784 1112.93 289 1207.52 289C1231.92 289 1254.82 294.47 1273.24 307.4C1282.2 312.373 1287.18 308.892 1287.18 293.973H1312.07V393.432H1287.18C1270.25 347.184 1247.35 318.838 1207.52 318.838C1167.69 318.838 1130.36 333.757 1130.36 368.568C1130.36 398.405 1151.76 415.313 1208.02 437.692Z" fill="#1E2B7C"></path>
<path d="M1396.68 657C1372.79 657 1354.37 638.6 1354.37 614.73C1354.37 591.357 1372.79 572.459 1396.68 572.459C1420.58 572.459 1439 591.357 1439 614.73C1439 638.6 1420.58 657 1396.68 657Z" fill="#1E2B7C"></path>
<path d="M169.456 165.972H186.069V232.361H0V215.764C10.6325 215.764 23.2587 212.444 23.2587 199.167V33.1945C23.2587 19.9167 10.6325 16.5972 0 16.5972V0H106.325V16.5972C85.0603 16.5972 76.4213 19.9167 76.4213 33.1945V199.167C76.4213 212.444 85.0603 215.764 106.325 215.764H119.616C152.843 215.764 159.488 195.847 169.456 165.972Z" fill="#1E2B7C"></path>
<path d="M420.149 0V16.5972C400.213 16.5972 395.229 29.875 395.229 46.4722V156.014C395.229 219.083 357.018 239 317.146 239C260.661 239 220.789 219.083 220.789 156.014V33.1945C220.789 19.9167 208.162 16.5972 197.53 16.5972V0H303.855V16.5972C282.59 16.5972 273.951 19.9167 273.951 33.1945V156.014C273.951 202.486 297.21 219.083 323.791 219.083C353.695 219.083 378.615 202.486 378.615 156.014V46.4722C378.615 29.875 373.631 16.5972 353.695 16.5972V0H420.149Z" fill="#1E2B7C"></path>
<path d="M722.589 16.5972C701.989 16.5972 694.346 19.2528 692.685 28.5472V199.167C692.685 212.444 701.324 215.764 722.589 215.764V232.361H616.264V215.764C626.896 215.764 639.522 212.444 639.522 199.167V44.1486L566.756 232.361H550.143L485.018 50.7875V185.889C485.018 205.806 493.325 215.764 513.261 215.764V232.361H446.808V215.764C456.776 215.764 468.405 205.806 468.405 185.889V29.875C468.405 19.9167 460.098 16.5972 446.808 16.5972V0H523.229L578.718 154.022L639.19 0L639.522 0.6639V0H722.589V16.5972Z" fill="#1E2B7C"></path>
<path d="M901.491 109.21C938.041 117.508 958.641 136.429 958.641 167.632C958.641 210.785 928.737 232.361 865.606 232.361H759.281V215.764C769.914 215.764 782.54 212.444 782.54 199.167V33.1945C782.54 19.9167 769.914 16.5972 759.281 16.5972V0H865.606C918.769 0 948.673 14.9375 948.673 58.0903C948.673 85.3097 931.728 101.575 901.491 109.21ZM865.606 16.5972C844.341 16.5972 835.702 19.9167 835.702 33.1945V101.243H852.316C878.897 101.243 892.188 84.6458 892.188 58.0903C892.188 28.2153 885.542 16.5972 865.606 16.5972ZM865.606 215.764C892.188 215.764 902.156 197.507 902.156 167.632C902.156 137.757 888.865 117.84 852.316 117.84H835.702V199.167C835.702 212.444 844.341 215.764 865.606 215.764Z" fill="#1E2B7C"></path>
<path d="M1156.6 165.972H1173.21V232.361H983.821V215.764C994.453 215.764 1007.08 212.444 1007.08 199.167V33.1945C1007.08 19.9167 994.453 16.5972 983.821 16.5972V0H1166.57V66.3889H1149.95C1139.99 36.5139 1133.34 16.5972 1100.11 16.5972H1090.15C1068.88 16.5972 1060.24 19.9167 1060.24 33.1945V104.563H1076.86C1096.79 104.563 1103.44 91.2847 1110.08 68.0486H1126.7V157.674H1110.08C1103.44 134.438 1096.79 121.16 1076.86 121.16H1060.24V199.167C1060.24 212.444 1068.88 215.764 1090.15 215.764H1106.76C1139.99 215.764 1146.63 195.847 1156.6 165.972Z" fill="#1E2B7C"></path>
<path d="M1419.06 212.444H1439C1439 229.042 1425.71 239 1402.45 239C1372.55 239 1349.62 226.718 1336.99 182.569C1326.69 146.056 1312.74 132.778 1282.83 132.778V199.167C1282.83 212.444 1289.48 215.764 1319.38 215.764V232.361H1206.41V215.764C1219.7 215.764 1229.67 212.444 1229.67 199.167V33.1945C1229.67 19.9167 1217.05 16.5972 1206.41 16.5972V0H1312.74C1372.55 0 1405.77 19.9167 1405.77 66.3889C1405.77 97.5917 1387.83 116.513 1354.27 125.807C1375.87 135.433 1384.84 153.026 1393.48 182.569C1402.12 211.781 1406.44 219.083 1413.08 219.083C1417.4 219.083 1419.06 215.764 1419.06 212.444ZM1282.83 33.1945V116.181H1292.8C1322.71 116.181 1349.29 102.903 1349.29 66.3889C1349.29 29.875 1336 16.5972 1312.74 16.5972C1291.47 16.5972 1282.83 19.9167 1282.83 33.1945Z" fill="#1E2B7C"></path>
</svg>